RobotoSerifDisplay-HairlineWidth1780 00m.ufo
<glyph name="comma" format="2">
  <advance width="189"/>
  <unicode hex="002C"/>
  <outline>
    <contour>
      <point x="74" y="-84" type="line"/>
      <point x="110" y="-63"/>
      <point x="135" y="-23"/>
      <point x="135.0" y="12" type="curve" smooth="yes"/>
      <point x="135" y="41"/>
      <point x="118" y="54"/>
      <point x="97" y="54.0" type="curve" smooth="yes"/>
      <point x="76.0" y="54.0"/>
      <point x="63" y="40"/>
      <point x="63" y="23" type="curve" smooth="yes"/>
      <point x="63" y="3"/>
      <point x="76" y="-8"/>
      <point x="94" y="-8.0" type="curve" smooth="yes"/>
      <point x="109" y="-8"/>
      <point x="119" y="-1"/>
      <point x="123" y="12" type="curve"/>
      <point x="121" y="10"/>
      <point x="118" y="8"/>
      <point x="117" y="5" type="curve"/>
      <point x="113" y="-22"/>
      <point x="95" y="-49"/>
      <point x="56" y="-71" type="curve"/>
    </contour>
  </outline>
</glyph>
<glyph name="one" format="2">
  <advance width="678"/>
  <unicode hex="0031"/>
  <outline>
    <contour>
      <point x="403" y="62" type="curve" smooth="yes"/>
      <point x="403" y="609" type="line"/>
      <point x="388" y="609" type="line"/>
      <point x="344" y="556"/>
      <point x="255" y="533"/>
      <point x="140" y="533" type="curve"/>
      <point x="140" y="505" type="line"/>
      <point x="205" y="505"/>
      <point x="340" y="531"/>
      <point x="372" y="579" type="curve"/>
      <point x="372" y="579"/>
      <point x="364" y="580"/>
      <point x="365" y="580" type="curve"/>
      <point x="365" y="62" type="line" smooth="yes"/>
      <point x="365" y="23"/>
      <point x="353" y="13"/>
      <point x="263" y="13" type="curve" smooth="yes"/>
      <point x="150" y="13" type="line"/>
      <point x="150" y="0" type="line"/>
      <point x="608" y="0" type="line"/>
      <point x="608" y="13" type="line"/>
      <point x="514" y="13" type="line" smooth="yes"/>
      <point x="417" y="13"/>
      <point x="403" y="23"/>
    </contour>
  </outline>
</glyph>
<glyph name="two" format="2">
  <advance width="709"/>
  <unicode hex="0032"/>
  <outline>
    <contour>
      <point x="506" y="30" type="line" smooth="yes"/>
      <point x="583.0" y="30.0"/>
      <point x="602" y="38"/>
      <point x="608" y="88" type="curve" smooth="yes"/>
      <point x="618" y="177" type="line"/>
      <point x="634" y="177" type="line"/>
      <point x="634" y="0" type="line"/>
      <point x="75" y="0" type="line"/>
      <point x="75" y="19" type="line"/>
      <point x="350" y="113"/>
      <point x="558" y="229"/>
      <point x="558" y="429" type="curve" smooth="yes"/>
      <point x="558" y="554"/>
      <point x="475" y="602"/>
      <point x="345" y="602" type="curve" smooth="yes"/>
      <point x="249" y="602"/>
      <point x="182" y="575"/>
      <point x="125" y="534" type="curve"/>
      <point x="124" y="534"/>
      <point x="136" y="560"/>
      <point x="150" y="561" type="curve"/>
      <point x="150" y="455" type="line"/>
      <point x="104" y="455" type="line"/>
      <point x="104" y="543" type="line"/>
      <point x="151" y="575"/>
      <point x="226" y="618"/>
      <point x="345" y="618" type="curve" smooth="yes"/>
      <point x="500" y="618"/>
      <point x="598" y="550"/>
      <point x="598" y="429" type="curve" smooth="yes"/>
      <point x="598" y="233"/>
      <point x="348" y="91"/>
      <point x="114" y="20" type="curve"/>
      <point x="109" y="21"/>
      <point x="114" y="29"/>
      <point x="117" y="30" type="curve"/>
    </contour>
  </outline>
</glyph>
<glyph name="five" format="2">
  <advance width="694"/>
  <unicode hex="0035"/>
  <outline>
    <contour>
      <point x="346" y="-90" type="curve" smooth="yes"/>
      <point x="218" y="-90"/>
      <point x="118" y="-36"/>
      <point x="70" y="38" type="curve"/>
      <point x="86" y="48" type="line"/>
      <point x="130" y="-24"/>
      <point x="223" y="-74"/>
      <point x="348" y="-74" type="curve" smooth="yes"/>
      <point x="511" y="-74"/>
      <point x="594" y="9"/>
      <point x="594" y="151" type="curve" smooth="yes"/>
      <point x="594" y="293"/>
      <point x="499" y="350"/>
      <point x="372" y="350" type="curve" smooth="yes"/>
      <point x="263" y="350"/>
      <point x="189" y="307"/>
      <point x="129" y="240" type="curve"/>
      <point x="114" y="240" type="line"/>
      <point x="114" y="609" type="line"/>
      <point x="581" y="609" type="line"/>
      <point x="571" y="574" type="line"/>
      <point x="129" y="574" type="line"/>
      <point x="131" y="590" type="line"/>
      <point x="131" y="254" type="line"/>
      <point x="132" y="254"/>
      <point x="122" y="255"/>
      <point x="124" y="255" type="curve"/>
      <point x="174" y="314"/>
      <point x="252" y="366"/>
      <point x="375" y="366" type="curve" smooth="yes"/>
      <point x="536" y="366"/>
      <point x="634" y="281"/>
      <point x="634" y="151" type="curve" smooth="yes"/>
      <point x="634" y="21"/>
      <point x="531" y="-90"/>
    </contour>
  </outline>
</glyph>
<glyph name="seven" format="2">
  <advance width="689"/>
  <unicode hex="0037"/>
  <outline>
    <contour>
      <point x="180" y="578" type="line" smooth="yes"/>
      <point x="132" y="578"/>
      <point x="119" y="566"/>
      <point x="111" y="509" type="curve" smooth="yes"/>
      <point x="101" y="434" type="line"/>
      <point x="85" y="434" type="line"/>
      <point x="85" y="609" type="line"/>
      <point x="664" y="609" type="line"/>
      <point x="664" y="589" type="line"/>
      <point x="519" y="431"/>
      <point x="371" y="213"/>
      <point x="315" y="-77" type="curve"/>
      <point x="275" y="-77" type="line"/>
      <point x="331" y="196"/>
      <point x="499" y="438"/>
      <point x="641" y="585" type="curve"/>
      <point x="643" y="578" type="line"/>
    </contour>
  </outline>
</glyph>
<glyph name="eight" format="2">
  <advance width="682"/>
  <unicode hex="0038"/>
  <outline>
    <contour>
      <point x="341" y="-10" type="curve" smooth="yes"/>
      <point x="506" y="-10"/>
      <point x="627" y="63"/>
      <point x="627" y="191" type="curve" smooth="yes"/>
      <point x="627" y="301"/>
      <point x="542" y="368"/>
      <point x="383" y="381" type="curve"/>
      <point x="398" y="372" type="line"/>
      <point x="398" y="382" type="line"/>
      <point x="383" y="373" type="line"/>
      <point x="518" y="392"/>
      <point x="584" y="454"/>
      <point x="584" y="544" type="curve" smooth="yes"/>
      <point x="584" y="652"/>
      <point x="478" y="720"/>
      <point x="341" y="720" type="curve" smooth="yes"/>
      <point x="204" y="720"/>
      <point x="98" y="652"/>
      <point x="98" y="544" type="curve" smooth="yes"/>
      <point x="98" y="454"/>
      <point x="164" y="392"/>
      <point x="299" y="373" type="curve"/>
      <point x="282" y="382" type="line"/>
      <point x="281" y="373" type="line"/>
      <point x="299" y="381" type="line"/>
      <point x="140" y="368"/>
      <point x="55" y="301"/>
      <point x="55" y="191" type="curve" smooth="yes"/>
      <point x="55" y="63"/>
      <point x="176" y="-10"/>
    </contour>
    <contour>
      <point x="341" y="6" type="curve" smooth="yes"/>
      <point x="193.0" y="6"/>
      <point x="96" y="77"/>
      <point x="96" y="196" type="curve" smooth="yes"/>
      <point x="96" y="315"/>
      <point x="193" y="370"/>
      <point x="341" y="370" type="curve" smooth="yes"/>
      <point x="489.0" y="370.0"/>
      <point x="586" y="315"/>
      <point x="586" y="196" type="curve" smooth="yes"/>
      <point x="586" y="77"/>
      <point x="489" y="6"/>
    </contour>
    <contour>
      <point x="341" y="385" type="curve" smooth="yes"/>
      <point x="222.0" y="385.0"/>
      <point x="139" y="434"/>
      <point x="139" y="539" type="curve" smooth="yes"/>
      <point x="139" y="644"/>
      <point x="215" y="703"/>
      <point x="341" y="703" type="curve" smooth="yes"/>
      <point x="467.0" y="703.0"/>
      <point x="543" y="644"/>
      <point x="543" y="539" type="curve" smooth="yes"/>
      <point x="543" y="434"/>
      <point x="460" y="385"/>
    </contour>
  </outline>
</glyph>
<glyph name="nine" format="2">
  <advance width="693"/>
  <unicode hex="0039"/>
  <outline>
    <contour>
      <point x="145" y="-85" type="line"/>
      <point x="424" y="-47"/>
      <point x="598" y="108"/>
      <point x="598" y="335" type="curve" smooth="yes"/>
      <point x="598" y="516"/>
      <point x="488" y="603"/>
      <point x="337" y="603" type="curve" smooth="yes"/>
      <point x="183" y="603"/>
      <point x="88" y="511"/>
      <point x="88" y="379" type="curve" smooth="yes"/>
      <point x="88" y="254"/>
      <point x="176" y="176"/>
      <point x="331" y="176" type="curve" smooth="yes"/>
      <point x="435" y="176"/>
      <point x="545" y="211"/>
      <point x="604" y="328" type="curve"/>
      <point x="604" y="328"/>
      <point x="616" y="321"/>
      <point x="615" y="321" type="curve"/>
      <point x="561" y="208"/>
      <point x="450" y="160"/>
      <point x="325" y="160" type="curve" smooth="yes"/>
      <point x="158" y="160"/>
      <point x="50" y="248"/>
      <point x="50" y="380" type="curve" smooth="yes"/>
      <point x="50" y="522"/>
      <point x="170" y="619"/>
      <point x="337" y="619" type="curve" smooth="yes"/>
      <point x="506" y="619"/>
      <point x="638" y="517"/>
      <point x="638" y="335" type="curve" smooth="yes"/>
      <point x="638" y="112"/>
      <point x="440" y="-65"/>
      <point x="148" y="-101" type="curve"/>
    </contour>
  </outline>
</glyph>
<glyph name="C" format="2">
  <advance width="834"/>
  <unicode hex="0043"/>
  <guideline x="781" y="203" angle="253.11320887605598" identifier="XONRp8tD2a"/>
  <outline>
    <contour>
      <point x="446" y="704" type="curve" smooth="yes"/>
      <point x="600" y="704"/>
      <point x="702" y="631"/>
      <point x="743" y="546" type="curve"/>
      <point x="759" y="546" type="line"/>
      <point x="759" y="710" type="line"/>
      <point x="741" y="710" type="line"/>
      <point x="727" y="591" type="line"/>
      <point x="737" y="591" type="line"/>
      <point x="689" y="661"/>
      <point x="583" y="720"/>
      <point x="446" y="720" type="curve" smooth="yes"/>
      <point x="224" y="720"/>
      <point x="45" y="571"/>
      <point x="45" y="355" type="curve" smooth="yes"/>
      <point x="45" y="139"/>
      <point x="218" y="-10"/>
      <point x="444" y="-10" type="curve" smooth="yes"/>
      <point x="616" y="-10"/>
      <point x="739" y="79"/>
      <point x="779" y="203" type="curve"/>
      <point x="764" y="209" type="line"/>
      <point x="728" y="97"/>
      <point x="617" y="6"/>
      <point x="443" y="6" type="curve" smooth="yes"/>
      <point x="235" y="6"/>
      <point x="85" y="142"/>
      <point x="85" y="355" type="curve" smooth="yes"/>
      <point x="85" y="568"/>
      <point x="238" y="704"/>
    </contour>
  </outline>
</glyph>
<glyph name="F" format="2">
  <advance width="686"/>
  <unicode hex="0046"/>
  <outline>
    <contour>
      <point x="182" y="695" type="line"/>
      <point x="507" y="695" type="line" smooth="yes"/>
      <point x="587" y="695"/>
      <point x="607" y="686"/>
      <point x="611" y="645" type="curve" smooth="yes"/>
      <point x="620" y="562" type="line"/>
      <point x="636" y="562" type="line"/>
      <point x="636" y="710" type="line"/>
      <point x="35" y="710" type="line"/>
      <point x="35" y="697" type="line"/>
      <point x="64" y="697" type="line" smooth="yes"/>
      <point x="121" y="697"/>
      <point x="144" y="689"/>
      <point x="144" y="655" type="curve" smooth="yes"/>
      <point x="144" y="55" type="line" smooth="yes"/>
      <point x="144" y="21"/>
      <point x="121" y="13"/>
      <point x="64" y="13" type="curve" smooth="yes"/>
      <point x="35" y="13" type="line"/>
      <point x="35" y="0" type="line"/>
      <point x="312" y="0" type="line"/>
      <point x="312" y="13" type="line"/>
      <point x="274" y="13" type="line" smooth="yes"/>
      <point x="223" y="13"/>
      <point x="182" y="15"/>
      <point x="182" y="55" type="curve" smooth="yes"/>
    </contour>
    <contour>
      <point x="164" y="364" type="curve"/>
      <point x="164" y="351" type="line"/>
      <point x="353" y="349"/>
      <point x="457" y="348"/>
      <point x="536" y="342" type="curve"/>
      <point x="536" y="373" type="line"/>
      <point x="457" y="367"/>
      <point x="353" y="366"/>
    </contour>
  </outline>
</glyph>
<glyph name="G" format="2">
  <advance width="890"/>
  <unicode hex="0047"/>
  <outline>
    <contour>
      <point x="771" y="302" type="line" smooth="yes"/>
      <point x="771" y="323"/>
      <point x="805" y="328"/>
      <point x="855" y="328" type="curve" smooth="yes"/>
      <point x="860" y="328" type="line"/>
      <point x="860" y="341" type="line"/>
      <point x="626" y="341" type="line"/>
      <point x="626" y="328" type="line"/>
      <point x="642" y="328" type="line" smooth="yes"/>
      <point x="697" y="328"/>
      <point x="735" y="323"/>
      <point x="735" y="302" type="curve" smooth="yes"/>
      <point x="735" y="97" type="line"/>
      <point x="708" y="69"/>
      <point x="609" y="6"/>
      <point x="453" y="6" type="curve" smooth="yes"/>
      <point x="216" y="6"/>
      <point x="85" y="142"/>
      <point x="85" y="355" type="curve" smooth="yes"/>
      <point x="85" y="568"/>
      <point x="238" y="704"/>
      <point x="446" y="704" type="curve" smooth="yes"/>
      <point x="600" y="704"/>
      <point x="702" y="631"/>
      <point x="743" y="546" type="curve"/>
      <point x="759" y="546" type="line"/>
      <point x="759" y="710" type="line"/>
      <point x="741" y="710" type="line"/>
      <point x="727" y="591" type="line"/>
      <point x="737" y="591" type="line"/>
      <point x="689" y="661"/>
      <point x="583" y="720"/>
      <point x="446" y="720" type="curve" smooth="yes"/>
      <point x="224" y="720"/>
      <point x="45" y="571"/>
      <point x="45" y="355" type="curve" smooth="yes"/>
      <point x="45" y="139"/>
      <point x="198" y="-10"/>
      <point x="453" y="-10" type="curve" smooth="yes"/>
      <point x="626" y="-10"/>
      <point x="731" y="58"/>
      <point x="771" y="104" type="curve"/>
    </contour>
  </outline>
</glyph>
<glyph name="M" format="2">
  <advance width="998"/>
  <unicode hex="004D"/>
  <guideline x="196" y="710" angle="115.84232165063418" identifier="AHBDz5CMJL"/>
  <guideline x="851" y="710" angle="64.05949081658179" identifier="8tDq0MCpwP"/>
  <anchor x="543" y="0.0" name="bottom"/>
  <outline>
    <contour>
      <point x="35" y="0" type="line"/>
      <point x="281" y="0" type="line"/>
      <point x="281" y="13" type="line"/>
      <point x="251" y="13" type="line" smooth="yes"/>
      <point x="201" y="13"/>
      <point x="160" y="29"/>
      <point x="160" y="40" type="curve" smooth="yes"/>
      <point x="160" y="700" type="line"/>
      <point x="157" y="700" type="line"/>
      <point x="477" y="-2" type="line"/>
      <point x="500" y="-2" type="line"/>
      <point x="821" y="699" type="line"/>
      <point x="817" y="701" type="line"/>
      <point x="817" y="29" type="line" smooth="yes"/>
      <point x="817" y="18"/>
      <point x="785" y="13"/>
      <point x="733" y="13" type="curve" smooth="yes"/>
      <point x="707" y="13" type="line"/>
      <point x="707" y="0" type="line"/>
      <point x="963" y="0" type="line"/>
      <point x="963" y="13" type="line"/>
      <point x="935" y="13" type="line" smooth="yes"/>
      <point x="878" y="13"/>
      <point x="854" y="21"/>
      <point x="854" y="55" type="curve" smooth="yes"/>
      <point x="854" y="655" type="line" smooth="yes"/>
      <point x="854" y="689"/>
      <point x="878" y="697"/>
      <point x="935" y="697" type="curve" smooth="yes"/>
      <point x="963" y="697" type="line"/>
      <point x="963" y="710" type="line"/>
      <point x="809" y="710" type="line"/>
      <point x="498" y="29" type="line"/>
      <point x="503" y="28" type="line"/>
      <point x="193" y="710" type="line"/>
      <point x="35" y="710" type="line"/>
      <point x="35" y="697" type="line"/>
      <point x="63" y="697" type="line" smooth="yes"/>
      <point x="122" y="697"/>
      <point x="144" y="689"/>
      <point x="144" y="655" type="curve" smooth="yes"/>
      <point x="144" y="67" type="line" smooth="yes"/>
      <point x="144" y="29"/>
      <point x="121" y="13"/>
      <point x="63" y="13" type="curve" smooth="yes"/>
      <point x="35" y="13" type="line"/>
    </contour>
  </outline>
</glyph>
<glyph name="Q" format="2">
  <advance width="909"/>
  <unicode hex="0051"/>
  <outline>
    <contour>
      <point x="449" y="-6" type="curve"/>
      <point x="449" y="-122"/>
      <point x="544" y="-179"/>
      <point x="678" y="-179" type="curve" smooth="yes"/>
      <point x="730" y="-179"/>
      <point x="785" y="-170"/>
      <point x="833" y="-155" type="curve"/>
      <point x="833" y="-112" type="line"/>
      <point x="777" y="-132"/>
      <point x="724" y="-145"/>
      <point x="659" y="-145" type="curve" smooth="yes"/>
      <point x="547" y="-145"/>
      <point x="466" y="-106"/>
      <point x="466" y="1" type="curve"/>
      <point x="469" y="1"/>
      <point x="446" y="-6"/>
    </contour>
    <contour>
      <point x="454" y="-10" type="curve" smooth="yes"/>
      <point x="690" y="-10"/>
      <point x="864" y="139"/>
      <point x="864" y="355" type="curve" smooth="yes"/>
      <point x="864" y="571"/>
      <point x="691" y="720"/>
      <point x="455" y="720" type="curve" smooth="yes"/>
      <point x="219" y="720"/>
      <point x="45" y="571"/>
      <point x="45" y="355" type="curve" smooth="yes"/>
      <point x="45" y="139"/>
      <point x="218" y="-10"/>
    </contour>
    <contour>
      <point x="454" y="6" type="curve" smooth="yes"/>
      <point x="235" y="6"/>
      <point x="85" y="142"/>
      <point x="85" y="355" type="curve" smooth="yes"/>
      <point x="85" y="568"/>
      <point x="236" y="704"/>
      <point x="455" y="704" type="curve" smooth="yes"/>
      <point x="674" y="704"/>
      <point x="824" y="568"/>
      <point x="824" y="355" type="curve" smooth="yes"/>
      <point x="824" y="142"/>
      <point x="673" y="6"/>
    </contour>
  </outline>
</glyph>
<glyph name="S" format="2">
  <advance width="674"/>
  <unicode hex="0053"/>
  <guideline x="364" y="358" angle="346.44280707046437" identifier="bXKt5zDu28"/>
  <outline>
    <contour>
      <point x="385.0" y="6.0" type="curve" smooth="yes"/>
      <point x="241" y="6"/>
      <point x="128" y="79"/>
      <point x="76" y="186" type="curve"/>
      <point x="60" y="186" type="line"/>
      <point x="60" y="0" type="line"/>
      <point x="78" y="0" type="line"/>
      <point x="91" y="136" type="line"/>
      <point x="103" y="136"/>
      <point x="88" y="143"/>
      <point x="80" y="143" type="curve"/>
      <point x="124" y="68"/>
      <point x="225" y="-10"/>
      <point x="384.0" y="-10.0" type="curve" smooth="yes"/>
      <point x="532" y="-10"/>
      <point x="634" y="56"/>
      <point x="634" y="182" type="curve" smooth="yes"/>
      <point x="634" y="325"/>
      <point x="503" y="357"/>
      <point x="362" y="391" type="curve" smooth="yes"/>
      <point x="241" y="420"/>
      <point x="125" y="450"/>
      <point x="125.0" y="554.0" type="curve" smooth="yes"/>
      <point x="125" y="644"/>
      <point x="202" y="704"/>
      <point x="330.0" y="704.0" type="curve" smooth="yes"/>
      <point x="469" y="704"/>
      <point x="541" y="633"/>
      <point x="574" y="559" type="curve"/>
      <point x="590" y="559" type="line"/>
      <point x="590" y="710" type="line"/>
      <point x="572" y="710" type="line"/>
      <point x="559" y="599" type="line"/>
      <point x="566" y="589"/>
      <point x="577" y="579"/>
      <point x="575" y="589" type="curve"/>
      <point x="548" y="650"/>
      <point x="479" y="720"/>
      <point x="330.0" y="720.0" type="curve" smooth="yes"/>
      <point x="193" y="720"/>
      <point x="95" y="660"/>
      <point x="95.0" y="551.0" type="curve" smooth="yes"/>
      <point x="95" y="425"/>
      <point x="222" y="391"/>
      <point x="352" y="360" type="curve" smooth="yes"/>
      <point x="485" y="328"/>
      <point x="602" y="296"/>
      <point x="602" y="173" type="curve" smooth="yes"/>
      <point x="602" y="72"/>
      <point x="522" y="6"/>
    </contour>
  </outline>
</glyph>
<glyph name="V" format="2">
  <advance width="759"/>
  <unicode hex="0056"/>
  <outline>
    <contour>
      <point x="399" y="17" type="line"/>
      <point x="110" y="688" type="line"/>
      <point x="110" y="694"/>
      <point x="140" y="697"/>
      <point x="195" y="697" type="curve" smooth="yes"/>
      <point x="217" y="697" type="line"/>
      <point x="217" y="710" type="line"/>
      <point x="5" y="710" type="line"/>
      <point x="5" y="697" type="line"/>
      <point x="12" y="697" type="line" smooth="yes"/>
      <point x="46" y="697"/>
      <point x="67" y="695"/>
      <point x="78" y="669" type="curve" smooth="yes"/>
      <point x="367" y="0" type="line"/>
      <point x="399" y="0" type="line"/>
      <point x="683" y="660" type="line" smooth="yes"/>
      <point x="695" y="687"/>
      <point x="719" y="697"/>
      <point x="748" y="697" type="curve"/>
      <point x="754" y="697" type="line"/>
      <point x="754" y="710" type="line"/>
      <point x="561" y="710" type="line"/>
      <point x="561" y="697" type="line"/>
      <point x="576" y="697" type="line" smooth="yes"/>
      <point x="623" y="697"/>
      <point x="669" y="688"/>
      <point x="669" y="676" type="curve"/>
      <point x="386" y="17" type="line"/>
    </contour>
  </outline>
</glyph>
<glyph name="X" format="2">
  <advance width="766"/>
  <unicode hex="0058"/>
  <guideline x="634" y="676" angle="232.20137673840452" identifier="4d7MeHkLyw"/>
  <guideline x="9" y="13" angle="90" identifier="aW0dpfVSzY"/>
  <guideline x="755" y="0" angle="90" identifier="qeEYWiOVT3"/>
  <outline>
    <contour>
      <point x="30" y="697" type="line"/>
      <point x="39" y="697" type="line" smooth="yes"/>
      <point x="84" y="697"/>
      <point x="102" y="696"/>
      <point x="120" y="672" type="curve"/>
      <point x="367" y="358" type="line"/>
      <point x="372" y="355" type="line"/>
      <point x="633" y="23" type="line"/>
      <point x="633" y="16"/>
      <point x="577" y="13"/>
      <point x="531" y="13" type="curve" smooth="yes"/>
      <point x="509" y="13" type="line"/>
      <point x="509" y="0" type="line"/>
      <point x="756" y="0" type="line"/>
      <point x="756" y="13" type="line"/>
      <point x="747" y="13" type="line" smooth="yes"/>
      <point x="702" y="13"/>
      <point x="684" y="14"/>
      <point x="666" y="38" type="curve"/>
      <point x="401" y="376" type="line"/>
      <point x="396" y="379" type="line"/>
      <point x="153" y="687" type="line"/>
      <point x="153" y="694"/>
      <point x="209" y="697"/>
      <point x="255" y="697" type="curve" smooth="yes"/>
      <point x="277" y="697" type="line"/>
      <point x="277" y="710" type="line"/>
      <point x="30" y="710" type="line"/>
    </contour>
    <contour>
      <point x="392" y="356" type="line"/>
      <point x="637" y="658" type="line" smooth="yes"/>
      <point x="660" y="687"/>
      <point x="698" y="697"/>
      <point x="732" y="697" type="curve" smooth="yes"/>
      <point x="736" y="697" type="line"/>
      <point x="736" y="710" type="line"/>
      <point x="511" y="710" type="line"/>
      <point x="511" y="697" type="line"/>
      <point x="529" y="697" type="line" smooth="yes"/>
      <point x="578" y="697"/>
      <point x="628" y="688"/>
      <point x="628" y="676" type="curve"/>
      <point x="384" y="375" type="line"/>
    </contour>
    <contour>
      <point x="375" y="376" type="line"/>
      <point x="109" y="52" type="line" smooth="yes"/>
      <point x="86" y="24"/>
      <point x="48" y="13"/>
      <point x="14" y="13" type="curve" smooth="yes"/>
      <point x="10" y="13" type="line"/>
      <point x="10" y="0" type="line"/>
      <point x="235" y="0" type="line"/>
      <point x="235" y="13" type="line"/>
      <point x="217" y="13" type="line" smooth="yes"/>
      <point x="168" y="13"/>
      <point x="118" y="22"/>
      <point x="118" y="34" type="curve"/>
      <point x="383" y="357" type="line"/>
    </contour>
  </outline>
</glyph>
<glyph name="d" format="2">
  <advance width="718"/>
  <unicode hex="0064"/>
  <outline>
    <contour>
      <point x="593.0" y="55" type="curve" smooth="yes"/>
      <point x="593" y="750" type="line"/>
      <point x="452" y="750" type="line"/>
      <point x="452" y="737" type="line"/>
      <point x="490" y="735.0" type="line" smooth="yes"/>
      <point x="546" y="732"/>
      <point x="555.0" y="722"/>
      <point x="555.0" y="697" type="curve" smooth="yes"/>
      <point x="555" y="120" type="line"/>
      <point x="557" y="120" type="line"/>
      <point x="557" y="0" type="line"/>
      <point x="694" y="0" type="line"/>
      <point x="694" y="13" type="line"/>
      <point x="677" y="13.0" type="line"/>
      <point x="619" y="13.0"/>
      <point x="593.0" y="21.0"/>
    </contour>
    <contour>
      <point x="314" y="528" type="curve" smooth="yes"/>
      <point x="140" y="528"/>
      <point x="35" y="421"/>
      <point x="35" y="259" type="curve" smooth="yes"/>
      <point x="35" y="97"/>
      <point x="140" y="-10"/>
      <point x="314" y="-10" type="curve" smooth="yes"/>
      <point x="428" y="-10"/>
      <point x="507" y="40"/>
      <point x="565" y="122" type="curve"/>
      <point x="565" y="146" type="line"/>
      <point x="512" y="60"/>
      <point x="427" y="6"/>
      <point x="314" y="6" type="curve" smooth="yes"/>
      <point x="162" y="6"/>
      <point x="77" y="106"/>
      <point x="77" y="259" type="curve" smooth="yes"/>
      <point x="77" y="412"/>
      <point x="162" y="512"/>
      <point x="314" y="512" type="curve" smooth="yes"/>
      <point x="427" y="512"/>
      <point x="512" y="458"/>
      <point x="565" y="372" type="curve"/>
      <point x="565" y="396" type="line"/>
      <point x="507" y="478"/>
      <point x="428" y="528"/>
    </contour>
  </outline>
</glyph>
<glyph name="e" format="2">
  <advance width="598"/>
  <unicode hex="0065"/>
  <outline>
    <contour>
      <point x="325" y="-10" type="curve" smooth="yes"/>
      <point x="449" y="-10"/>
      <point x="525" y="52"/>
      <point x="563" y="121" type="curve"/>
      <point x="548" y="130" type="line"/>
      <point x="519" y="72"/>
      <point x="447" y="7"/>
      <point x="325" y="6" type="curve" smooth="yes"/>
      <point x="178" y="5"/>
      <point x="77" y="103"/>
      <point x="77" y="259" type="curve" smooth="yes"/>
      <point x="77" y="415"/>
      <point x="174" y="513"/>
      <point x="312" y="513" type="curve" smooth="yes"/>
      <point x="437" y="513"/>
      <point x="514" y="431"/>
      <point x="517" y="288" type="curve"/>
      <point x="535" y="292" type="line"/>
      <point x="53" y="292" type="line"/>
      <point x="53" y="278" type="line"/>
      <point x="559" y="278" type="line"/>
      <point x="557" y="434"/>
      <point x="460" y="528"/>
      <point x="312" y="528" type="curve" smooth="yes"/>
      <point x="158" y="528"/>
      <point x="35" y="420"/>
      <point x="35" y="259" type="curve" smooth="yes"/>
      <point x="35" y="98"/>
      <point x="161" y="-10"/>
    </contour>
  </outline>
</glyph>
<glyph name="l" format="2">
  <advance width="289"/>
  <unicode hex="006C"/>
  <outline>
    <contour>
      <point x="164" y="750" type="line"/>
      <point x="22" y="750" type="line"/>
      <point x="22" y="737" type="line"/>
      <point x="60" y="735.0" type="line" smooth="yes"/>
      <point x="115" y="732"/>
      <point x="125.0" y="722"/>
      <point x="125.0" y="697" type="curve" smooth="yes"/>
      <point x="125.0" y="50" type="line" smooth="yes"/>
      <point x="125" y="19"/>
      <point x="91.0" y="13.0"/>
      <point x="43" y="13.0" type="curve" smooth="yes"/>
      <point x="26" y="13" type="line"/>
      <point x="26" y="0" type="line"/>
      <point x="263" y="0" type="line"/>
      <point x="263" y="13" type="line"/>
      <point x="246" y="13.0" type="line" smooth="yes"/>
      <point x="198.0" y="13.0"/>
      <point x="164.0" y="19"/>
      <point x="164.0" y="50" type="curve" smooth="yes"/>
    </contour>
  </outline>
</glyph>
<glyph name="m" format="2">
  <advance width="1047"/>
  <unicode hex="006D"/>
  <outline>
    <contour>
      <point x="26" y="0" type="line"/>
      <point x="257" y="0" type="line"/>
      <point x="257" y="13" type="line"/>
      <point x="231" y="13.0" type="line" smooth="yes"/>
      <point x="204" y="13"/>
      <point x="163.0" y="18"/>
      <point x="163.0" y="29" type="curve" smooth="yes"/>
      <point x="163" y="409" type="line"/>
      <point x="161" y="409" type="line"/>
      <point x="161" y="518" type="line"/>
      <point x="26" y="518" type="line"/>
      <point x="26" y="505" type="line"/>
      <point x="63" y="503.0" type="line" smooth="yes"/>
      <point x="116" y="500"/>
      <point x="125.0" y="490"/>
      <point x="125.0" y="466" type="curve" smooth="yes"/>
      <point x="125.0" y="50" type="line" smooth="yes"/>
      <point x="125" y="19"/>
      <point x="91.0" y="13.0"/>
      <point x="43" y="13.0" type="curve" smooth="yes"/>
      <point x="26" y="13" type="line"/>
    </contour>
    <contour>
      <point x="642" y="0" type="line"/>
      <point x="642" y="13" type="line"/>
      <point x="625" y="13.0" type="line" smooth="yes"/>
      <point x="578" y="13"/>
      <point x="541" y="19"/>
      <point x="541.0" y="50" type="curve" smooth="yes"/>
      <point x="541" y="399" type="line"/>
      <point x="531.0" y="483.0"/>
      <point x="471" y="528"/>
      <point x="383" y="528.0" type="curve" smooth="yes"/>
      <point x="294" y="528"/>
      <point x="221" y="481"/>
      <point x="154" y="407" type="curve"/>
      <point x="154" y="384" type="line"/>
      <point x="221" y="462"/>
      <point x="296" y="509"/>
      <point x="381.0" y="509.0" type="curve" smooth="yes"/>
      <point x="463" y="509"/>
      <point x="503" y="466"/>
      <point x="503" y="366" type="curve" smooth="yes"/>
      <point x="503.0" y="29" type="line" smooth="yes"/>
      <point x="503" y="18"/>
      <point x="463" y="13"/>
      <point x="435" y="13.0" type="curve" smooth="yes"/>
      <point x="409" y="13" type="line"/>
      <point x="409" y="0" type="line"/>
    </contour>
    <contour>
      <point x="1018" y="0" type="line"/>
      <point x="1018" y="13" type="line"/>
      <point x="1001" y="13.0" type="line" smooth="yes"/>
      <point x="954" y="13"/>
      <point x="919" y="19"/>
      <point x="919.0" y="50" type="curve" smooth="yes"/>
      <point x="919" y="377" type="line" smooth="yes"/>
      <point x="919" y="481"/>
      <point x="848" y="528"/>
      <point x="760.0" y="528.0" type="curve" smooth="yes"/>
      <point x="672" y="528"/>
      <point x="599" y="481"/>
      <point x="532" y="407" type="curve"/>
      <point x="532" y="384" type="line"/>
      <point x="599" y="462"/>
      <point x="674" y="509"/>
      <point x="759.0" y="509.0" type="curve" smooth="yes"/>
      <point x="841" y="509"/>
      <point x="881" y="466"/>
      <point x="881" y="366" type="curve" smooth="yes"/>
      <point x="881.0" y="29" type="line" smooth="yes"/>
      <point x="881" y="18"/>
      <point x="838" y="13"/>
      <point x="810" y="13.0" type="curve" smooth="yes"/>
      <point x="794" y="13" type="line"/>
      <point x="794" y="0" type="line"/>
    </contour>
  </outline>
</glyph>
<glyph name="o" format="2">
  <advance width="658"/>
  <unicode hex="006F"/>
  <outline>
    <contour>
      <point x="329" y="-10" type="curve" smooth="yes"/>
      <point x="499" y="-10"/>
      <point x="623" y="98"/>
      <point x="623" y="259" type="curve" smooth="yes"/>
      <point x="623" y="420"/>
      <point x="499" y="528"/>
      <point x="329" y="528" type="curve" smooth="yes"/>
      <point x="159" y="528"/>
      <point x="35" y="420"/>
      <point x="35" y="259" type="curve" smooth="yes"/>
      <point x="35" y="98"/>
      <point x="159" y="-10"/>
    </contour>
    <contour>
      <point x="329" y="6" type="curve" smooth="yes"/>
      <point x="176" y="6"/>
      <point x="75" y="103"/>
      <point x="75" y="259" type="curve" smooth="yes"/>
      <point x="75" y="415"/>
      <point x="176" y="512"/>
      <point x="329" y="512" type="curve" smooth="yes"/>
      <point x="482" y="512"/>
      <point x="583" y="415"/>
      <point x="583" y="259" type="curve" smooth="yes"/>
      <point x="583" y="103"/>
      <point x="482" y="6"/>
    </contour>
  </outline>
</glyph>
<glyph name="q" format="2">
  <advance width="695"/>
  <unicode hex="0071"/>
  <outline>
    <contour>
      <point x="434" y="-223" type="line"/>
      <point x="694" y="-223" type="line"/>
      <point x="694" y="-210" type="line"/>
      <point x="677" y="-210" type="line"/>
      <point x="629" y="-210"/>
      <point x="595" y="-204"/>
      <point x="595" y="-173" type="curve" smooth="yes"/>
      <point x="595" y="521" type="line"/>
      <point x="581" y="521" type="line"/>
      <point x="559" y="392" type="line"/>
      <point x="557" y="392" type="line"/>
      <point x="557" y="-194" type="line" smooth="yes"/>
      <point x="557" y="-205"/>
      <point x="511" y="-210"/>
      <point x="486" y="-210" type="curve" smooth="yes"/>
      <point x="434" y="-210" type="line"/>
    </contour>
    <contour>
      <point x="314" y="528" type="curve" smooth="yes"/>
      <point x="140" y="528"/>
      <point x="35" y="421"/>
      <point x="35" y="259" type="curve" smooth="yes"/>
      <point x="35" y="97"/>
      <point x="140" y="-10"/>
      <point x="314" y="-10" type="curve" smooth="yes"/>
      <point x="428" y="-10"/>
      <point x="507" y="40"/>
      <point x="565" y="122" type="curve"/>
      <point x="565" y="146" type="line"/>
      <point x="512" y="60"/>
      <point x="427" y="6"/>
      <point x="314" y="6" type="curve" smooth="yes"/>
      <point x="162" y="6"/>
      <point x="77" y="106"/>
      <point x="77" y="259" type="curve" smooth="yes"/>
      <point x="77" y="412"/>
      <point x="162" y="512"/>
      <point x="314" y="512" type="curve" smooth="yes"/>
      <point x="427" y="512"/>
      <point x="512" y="458"/>
      <point x="565" y="372" type="curve"/>
      <point x="565" y="396" type="line"/>
      <point x="507" y="478"/>
      <point x="428" y="528"/>
    </contour>
  </outline>
</glyph>
<glyph name="s" format="2">
  <advance width="494"/>
  <unicode hex="0073"/>
  <guideline x="252" y="256" angle="344.64986350757556" identifier="BD3lIhDRSS"/>
  <outline>
    <contour>
      <point x="436" y="123" type="curve" smooth="yes"/>
      <point x="436" y="53"/>
      <point x="379" y="6"/>
      <point x="245" y="6.0" type="curve" smooth="yes"/>
      <point x="183" y="6"/>
      <point x="116" y="16"/>
      <point x="57" y="50" type="curve"/>
      <point x="65" y="40"/>
      <point x="64" y="40"/>
      <point x="74" y="30" type="curve"/>
      <point x="74" y="124" type="line"/>
      <point x="28" y="124" type="line"/>
      <point x="28" y="44" type="line"/>
      <point x="83" y="10"/>
      <point x="157" y="-10"/>
      <point x="245.0" y="-10.0" type="curve" smooth="yes"/>
      <point x="399" y="-10"/>
      <point x="467" y="49"/>
      <point x="467" y="133" type="curve" smooth="yes"/>
      <point x="467" y="231"/>
      <point x="374" y="256"/>
      <point x="272" y="284" type="curve" smooth="yes"/>
      <point x="145" y="319"/>
      <point x="74" y="333"/>
      <point x="74" y="406" type="curve" smooth="yes"/>
      <point x="74" y="467"/>
      <point x="125" y="512"/>
      <point x="248" y="512.0" type="curve" smooth="yes"/>
      <point x="312" y="512"/>
      <point x="371" y="500"/>
      <point x="403" y="475" type="curve"/>
      <point x="401" y="484"/>
      <point x="395" y="492"/>
      <point x="389" y="499" type="curve"/>
      <point x="389" y="412" type="line"/>
      <point x="433" y="412" type="line"/>
      <point x="433" y="484" type="line"/>
      <point x="396" y="505"/>
      <point x="342" y="528"/>
      <point x="249.0" y="528.0" type="curve" smooth="yes"/>
      <point x="117" y="528"/>
      <point x="45" y="480"/>
      <point x="45" y="401" type="curve" smooth="yes"/>
      <point x="45" y="305"/>
      <point x="150" y="282"/>
      <point x="252" y="254" type="curve" smooth="yes"/>
      <point x="352" y="227"/>
      <point x="436" y="209"/>
    </contour>
  </outline>
</glyph>
<glyph name="w" format="2">
  <advance width="904"/>
  <unicode hex="0077"/>
  <guideline x="284" y="32" angle="291.53558515038264" identifier="vS7rNXuvo3"/>
  <guideline x="657" y="27" angle="290.4513237835093" identifier="m6qlH26rAA"/>
  <guideline x="444" y="518" angle="70.19694908959808" identifier="2fGbJ3D8fm"/>
  <guideline x="821" y="485" angle="68.28235621348973" identifier="Xe8ZdAcz59"/>
  <guideline x="315" y="51" angle="0" identifier="esayuFGasF"/>
  <outline>
    <contour>
      <point x="452" y="486" type="line"/>
      <point x="277" y="0" type="line"/>
      <point x="253" y="0" type="line"/>
      <point x="62" y="484" type="line" smooth="yes"/>
      <point x="56" y="500"/>
      <point x="30" y="505"/>
      <point x="-4" y="505" type="curve"/>
      <point x="-5" y="505" type="line"/>
      <point x="-5" y="518" type="line"/>
      <point x="201" y="518" type="line"/>
      <point x="201" y="505" type="line"/>
      <point x="199" y="505" type="line" smooth="yes"/>
      <point x="149" y="505"/>
      <point x="98" y="503"/>
      <point x="98" y="496" type="curve"/>
      <point x="281" y="32" type="line"/>
      <point x="267" y="32" type="line"/>
      <point x="442" y="518" type="line"/>
      <point x="468" y="518" type="line"/>
      <point x="656" y="27" type="line"/>
      <point x="641" y="28" type="line"/>
      <point x="821" y="485" type="line"/>
      <point x="821" y="498"/>
      <point x="785" y="505"/>
      <point x="716" y="505" type="curve" smooth="yes"/>
      <point x="714" y="505" type="line"/>
      <point x="714" y="518" type="line"/>
      <point x="909" y="518" type="line"/>
      <point x="909" y="505" type="line"/>
      <point x="907" y="505" type="line"/>
      <point x="867" y="505"/>
      <point x="846" y="496"/>
      <point x="837" y="472" type="curve" smooth="yes"/>
      <point x="651" y="0" type="line"/>
      <point x="627" y="0" type="line"/>
      <point x="443" y="480" type="line"/>
    </contour>
  </outline>
</glyph>
<glyph name="x" format="2">
  <advance width="587"/>
  <unicode hex="0078"/>
  <guideline x="498" y="490" angle="228.7404062416324" identifier="vnC9CkgzTg"/>
  <guideline x="12" y="0" angle="90" identifier="LHlvMoijRK"/>
  <guideline x="579" y="13" angle="90" identifier="eW1Is4uvfj"/>
  <outline>
    <contour>
      <point x="572" y="0" type="line"/>
      <point x="572" y="13" type="line"/>
      <point x="566" y="13" type="line"/>
      <point x="540" y="13"/>
      <point x="532" y="18"/>
      <point x="518" y="34" type="curve" smooth="yes"/>
      <point x="313" y="275" type="line"/>
      <point x="309" y="277" type="line"/>
      <point x="116" y="497" type="line" smooth="yes"/>
      <point x="112" y="502"/>
      <point x="163" y="505"/>
      <point x="212" y="505" type="curve" smooth="yes"/>
      <point x="217" y="505" type="line"/>
      <point x="217" y="518" type="line"/>
      <point x="25" y="518" type="line"/>
      <point x="25" y="505" type="line"/>
      <point x="31" y="505" type="line"/>
      <point x="57" y="505"/>
      <point x="65" y="500"/>
      <point x="79" y="484" type="curve" smooth="yes"/>
      <point x="278" y="256" type="line"/>
      <point x="282" y="254" type="line"/>
      <point x="481" y="21" type="line"/>
      <point x="485" y="16"/>
      <point x="434" y="13"/>
      <point x="385" y="13" type="curve" smooth="yes"/>
      <point x="380" y="13" type="line"/>
      <point x="380" y="0" type="line"/>
    </contour>
    <contour>
      <point x="15" y="0" type="line"/>
      <point x="191" y="0" type="line"/>
      <point x="191" y="13" type="line"/>
      <point x="187" y="13" type="line" smooth="yes"/>
      <point x="114" y="13"/>
      <point x="86" y="19"/>
      <point x="86" y="28" type="curve"/>
      <point x="293" y="257" type="line"/>
      <point x="282" y="271" type="line"/>
      <point x="79" y="47" type="line" smooth="yes"/>
      <point x="56" y="22"/>
      <point x="43" y="13"/>
      <point x="19" y="13" type="curve"/>
      <point x="15" y="13" type="line"/>
    </contour>
    <contour>
      <point x="305" y="258" type="line"/>
      <point x="498" y="471" type="line" smooth="yes"/>
      <point x="521" y="496"/>
      <point x="534" y="505"/>
      <point x="558" y="505" type="curve"/>
      <point x="562" y="505" type="line"/>
      <point x="562" y="518" type="line"/>
      <point x="386" y="518" type="line"/>
      <point x="386" y="505" type="line"/>
      <point x="390" y="505" type="line" smooth="yes"/>
      <point x="463" y="505"/>
      <point x="491" y="499"/>
      <point x="491" y="490" type="curve"/>
      <point x="294" y="272" type="line"/>
    </contour>
  </outline>
</glyph>
<glyph name="Uogonek" format="2">
  <advance width="991"/>
  <unicode hex="0172"/>
  <outline>
    <contour>
      <point x="574" y="-233" type="curve" smooth="yes"/>
      <point x="626" y="-233"/>
      <point x="670" y="-211"/>
      <point x="705" y="-180" type="curve"/>
      <point x="680" y="-160" type="line"/>
      <point x="651" y="-183"/>
      <point x="622" y="-203"/>
      <point x="577" y="-203" type="curve" smooth="yes"/>
      <point x="533" y="-203"/>
      <point x="496" y="-181"/>
      <point x="496" y="-140" type="curve" smooth="yes"/>
      <point x="496" y="-72"/>
      <point x="564" y="-45"/>
      <point x="699" y="41" type="curve" smooth="yes"/>
      <point x="769" y="85"/>
      <point x="813" y="159"/>
      <point x="813" y="271" type="curve" smooth="yes"/>
      <point x="813" y="634" type="line" smooth="yes"/>
      <point x="813" y="668"/>
      <point x="859" y="680"/>
      <point x="924" y="680" type="curve" smooth="yes"/>
      <point x="938" y="680" type="line"/>
      <point x="938" y="710" type="line"/>
      <point x="652" y="710" type="line"/>
      <point x="652" y="680" type="line"/>
      <point x="660" y="680" type="line" smooth="yes"/>
      <point x="704" y="680"/>
      <point x="773" y="672"/>
      <point x="773" y="658" type="curve" smooth="yes"/>
      <point x="773" y="271" type="line" smooth="yes"/>
      <point x="773" y="89"/>
      <point x="649" y="24"/>
      <point x="495" y="24" type="curve" smooth="yes"/>
      <point x="342" y="24"/>
      <point x="215" y="86"/>
      <point x="215" y="271" type="curve" smooth="yes"/>
      <point x="215" y="670" type="line" smooth="yes"/>
      <point x="215" y="677"/>
      <point x="279" y="680"/>
      <point x="329" y="680" type="curve" smooth="yes"/>
      <point x="341" y="680" type="line"/>
      <point x="341" y="710" type="line"/>
      <point x="54" y="710" type="line"/>
      <point x="54" y="680" type="line"/>
      <point x="69" y="680" type="line" smooth="yes"/>
      <point x="133" y="680"/>
      <point x="178" y="673"/>
      <point x="178" y="644" type="curve" smooth="yes"/>
      <point x="178" y="271" type="line" smooth="yes"/>
      <point x="178" y="68"/>
      <point x="313" y="-10"/>
      <point x="493" y="-10" type="curve" smooth="yes"/>
      <point x="531" y="-10"/>
      <point x="569" y="-5"/>
      <point x="606" y="7" type="curve"/>
      <point x="621" y="20" type="line"/>
      <point x="540" y="-23"/>
      <point x="457" y="-71"/>
      <point x="457" y="-140" type="curve" smooth="yes"/>
      <point x="457" y="-198"/>
      <point x="511" y="-233"/>
    </contour>
  </outline>
</glyph>
<glyph name="Uhorn" format="2">
  <advance width="1041"/>
  <unicode hex="01AF"/>
  <anchor x="511" y="663.0" name="top"/>
  <outline>
    <contour>
      <point x="956" y="696" type="curve" smooth="yes"/>
      <point x="1062" y="722"/>
      <point x="1100" y="785"/>
      <point x="1105" y="878" type="curve"/>
      <point x="1060" y="878" type="line"/>
      <point x="1049" y="738"/>
      <point x="973" y="710"/>
      <point x="766" y="710" type="curve" smooth="yes"/>
      <point x="652" y="710" type="line"/>
      <point x="652" y="680" type="line"/>
      <point x="660" y="680" type="line" smooth="yes"/>
      <point x="704" y="680"/>
      <point x="774" y="672"/>
      <point x="774" y="658" type="curve" smooth="yes"/>
      <point x="774" y="271" type="line" smooth="yes"/>
      <point x="774" y="89"/>
      <point x="649" y="24"/>
      <point x="495" y="24" type="curve" smooth="yes"/>
      <point x="342" y="24"/>
      <point x="215" y="86"/>
      <point x="215" y="271" type="curve" smooth="yes"/>
      <point x="215" y="670" type="line" smooth="yes"/>
      <point x="215" y="677"/>
      <point x="279" y="680"/>
      <point x="329" y="680" type="curve" smooth="yes"/>
      <point x="341" y="680" type="line"/>
      <point x="341" y="710" type="line"/>
      <point x="54" y="710" type="line"/>
      <point x="54" y="680" type="line"/>
      <point x="69" y="680" type="line" smooth="yes"/>
      <point x="133" y="680"/>
      <point x="178" y="673"/>
      <point x="178" y="644" type="curve" smooth="yes"/>
      <point x="178" y="271" type="line" smooth="yes"/>
      <point x="178" y="68"/>
      <point x="313" y="-10"/>
      <point x="493" y="-10" type="curve" smooth="yes"/>
      <point x="670" y="-10"/>
      <point x="813" y="69"/>
      <point x="813" y="271" type="curve" smooth="yes"/>
      <point x="813" y="644" type="line" smooth="yes"/>
      <point x="813" y="678"/>
      <point x="848" y="671"/>
    </contour>
  </outline>
</glyph>
<glyph name="minute" format="2">
  <advance width="292"/>
  <unicode hex="2032"/>
  <outline>
    <contour>
      <point x="192" y="710" type="line"/>
      <point x="178" y="616"/>
      <point x="164" y="572"/>
      <point x="148" y="456" type="curve"/>
      <point x="108" y="456" type="line"/>
      <point x="130" y="592"/>
      <point x="130" y="635"/>
      <point x="145" y="710" type="curve"/>
    </contour>
  </outline>
</glyph>
<glyph name="hook" format="2">
  <advance width="636"/>
  <unicode hex="2440"/>
  <anchor x="283" y="517.0" name="_top"/>
  <outline>
    <contour>
      <point x="171" y="691" type="line"/>
      <point x="179" y="732"/>
      <point x="221" y="767"/>
      <point x="300" y="767" type="curve" smooth="yes"/>
      <point x="369" y="767"/>
      <point x="409" y="744"/>
      <point x="409" y="699" type="curve" smooth="yes"/>
      <point x="409" y="650"/>
      <point x="347" y="624"/>
      <point x="277" y="621" type="curve"/>
      <point x="311" y="647" type="line"/>
      <point x="311" y="580" type="line"/>
      <point x="263" y="580" type="line"/>
      <point x="263" y="646" type="line"/>
      <point x="322" y="648"/>
      <point x="367" y="663"/>
      <point x="367" y="698" type="curve" smooth="yes"/>
      <point x="367" y="725"/>
      <point x="341" y="741"/>
      <point x="302" y="741" type="curve" smooth="yes"/>
      <point x="244" y="741"/>
      <point x="226" y="719"/>
      <point x="218" y="691" type="curve"/>
    </contour>
  </outline>
</glyph>
<glyph name="uni25C3" format="2">
  <advance width="960"/>
  <unicode hex="25C3"/>
  <outline>
    <contour>
      <point x="891" y="-40" type="line"/>
      <point x="891" y="754" type="line"/>
      <point x="18" y="357" type="line"/>
    </contour>
    <contour>
      <point x="840" y="24" type="line"/>
      <point x="856" y="24" type="line"/>
      <point x="98" y="368" type="line"/>
      <point x="98" y="346" type="line"/>
      <point x="851" y="688" type="line"/>
      <point x="840" y="690" type="line"/>
    </contour>
  </outline>
</glyph>
<glyph name="acute.uc" format="2">
  <advance width="622"/>
  <anchor x="249" y="727.0" name="_top"/>
  <outline>
    <contour>
      <point x="335" y="868" type="curve" smooth="yes"/>
      <point x="219" y="780" type="line"/>
      <point x="219" y="766" type="line"/>
      <point x="236" y="766" type="line"/>
      <point x="376" y="838" type="line" smooth="yes"/>
      <point x="410" y="857"/>
      <point x="426" y="868"/>
      <point x="426" y="884" type="curve" smooth="yes"/>
      <point x="426" y="897"/>
      <point x="417" y="906"/>
      <point x="401" y="906" type="curve" smooth="yes"/>
      <point x="378" y="906"/>
      <point x="365" y="892"/>
    </contour>
  </outline>
</glyph>
<glyph name="baht" format="2">
  <advance width="701"/>
  <outline>
    <contour>
      <point x="333" y="790" type="line"/>
      <point x="333" y="699" type="line"/>
      <point x="333" y="691" type="line"/>
      <point x="333" y="21" type="line"/>
      <point x="333" y="11" type="line"/>
      <point x="333" y="-120" type="line"/>
      <point x="376" y="-120" type="line"/>
      <point x="376" y="11" type="line"/>
      <point x="376" y="21" type="line"/>
      <point x="376" y="691" type="line"/>
      <point x="376" y="699" type="line"/>
      <point x="376" y="790" type="line"/>
    </contour>
    <contour>
      <point x="380" y="710" type="curve"/>
      <point x="31" y="710" type="line"/>
      <point x="31" y="680" type="line"/>
      <point x="45" y="680" type="line" smooth="yes"/>
      <point x="98" y="680"/>
      <point x="137" y="673"/>
      <point x="137" y="644" type="curve" smooth="yes"/>
      <point x="137" y="66" type="line" smooth="yes"/>
      <point x="137" y="37"/>
      <point x="98" y="30"/>
      <point x="45" y="30" type="curve" smooth="yes"/>
      <point x="31" y="30" type="line"/>
      <point x="31" y="0" type="line"/>
      <point x="387" y="0" type="line" smooth="yes"/>
      <point x="550" y="0"/>
      <point x="641" y="73"/>
      <point x="641" y="191" type="curve" smooth="yes"/>
      <point x="641" y="309"/>
      <point x="536" y="384"/>
      <point x="305" y="384" type="curve"/>
      <point x="299" y="363" type="line"/>
      <point x="518" y="363"/>
      <point x="608" y="435"/>
      <point x="608" y="542" type="curve" smooth="yes"/>
      <point x="608" y="645"/>
      <point x="529" y="710"/>
    </contour>
    <contour>
      <point x="343" y="386" type="curve"/>
      <point x="176" y="386" type="line"/>
      <point x="176" y="680" type="line"/>
      <point x="379" y="680" type="line"/>
      <point x="507" y="680"/>
      <point x="564" y="630"/>
      <point x="564" y="541" type="curve" smooth="yes"/>
      <point x="564" y="450"/>
      <point x="499" y="386"/>
    </contour>
    <contour>
      <point x="347" y="358" type="line"/>
      <point x="515" y="358"/>
      <point x="595" y="290"/>
      <point x="595" y="192" type="curve" smooth="yes"/>
      <point x="595" y="88"/>
      <point x="527" y="30"/>
      <point x="387" y="30" type="curve" smooth="yes"/>
      <point x="176" y="30" type="line"/>
      <point x="176" y="358" type="line"/>
    </contour>
  </outline>
</glyph>
<glyph name="blackdiamond" format="2">
  <advance width="778"/>
  <outline>
    <contour>
      <point x="721" y="313" type="line"/>
      <point x="389" y="574" type="line"/>
      <point x="57" y="313" type="line"/>
      <point x="389" y="52" type="line"/>
    </contour>
  </outline>
</glyph>
<glyph name="breve_tilde.uc" format="2">
  <advance width="622"/>
  <anchor x="296" y="694.0" name="_top"/>
  <outline>
    <contour>
      <point x="304" y="759" type="curve" smooth="yes"/>
      <point x="204" y="759"/>
      <point x="147" y="806"/>
      <point x="140" y="884" type="curve"/>
      <point x="178" y="884" type="line"/>
      <point x="190" y="825"/>
      <point x="226" y="799"/>
      <point x="303" y="799" type="curve" smooth="yes"/>
      <point x="379" y="799"/>
      <point x="420" y="825"/>
      <point x="431" y="884" type="curve"/>
      <point x="467" y="884" type="line"/>
      <point x="461" y="806"/>
      <point x="403" y="759"/>
    </contour>
    <contour>
      <point x="381" y="928" type="curve" smooth="yes"/>
      <point x="437" y="928"/>
      <point x="465" y="961"/>
      <point x="486" y="1020" type="curve"/>
      <point x="450" y="1029" type="line"/>
      <point x="433" y="987"/>
      <point x="415" y="961"/>
      <point x="380" y="961" type="curve" smooth="yes"/>
      <point x="328" y="961"/>
      <point x="306" y="1032"/>
      <point x="221" y="1032" type="curve" smooth="yes"/>
      <point x="166" y="1032"/>
      <point x="133" y="1000"/>
      <point x="121" y="938" type="curve"/>
      <point x="156" y="928" type="line"/>
      <point x="169" y="974"/>
      <point x="181" y="999"/>
      <point x="221" y="999" type="curve" smooth="yes"/>
      <point x="275" y="999"/>
      <point x="293" y="928"/>
    </contour>
  </outline>
</glyph>
<glyph name="circumflex.uc" format="2">
  <advance width="623"/>
  <anchor x="305" y="694.0" name="_top"/>
  <outline>
    <contour>
      <point x="351" y="883" type="line"/>
      <point x="493" y="759" type="line"/>
      <point x="493" y="749" type="line"/>
      <point x="465" y="749" type="line"/>
      <point x="271" y="867" type="line"/>
      <point x="337" y="867" type="line"/>
      <point x="151" y="749" type="line"/>
      <point x="130" y="749" type="line"/>
      <point x="130" y="759" type="line"/>
      <point x="269" y="883" type="line"/>
    </contour>
  </outline>
</glyph>
<glyph name="circumflex_hook.uc" format="2">
  <advance width="635"/>
  <anchor x="303" y="694.0" name="_top"/>
  <outline>
    <contour>
      <point x="403" y="943" type="line"/>
      <point x="414" y="980"/>
      <point x="453" y="1017"/>
      <point x="530" y="1017" type="curve" smooth="yes"/>
      <point x="603" y="1017"/>
      <point x="641" y="993"/>
      <point x="641" y="949" type="curve" smooth="yes"/>
      <point x="641" y="900"/>
      <point x="581" y="878"/>
      <point x="514" y="877" type="curve"/>
      <point x="542" y="903" type="line"/>
      <point x="542" y="839" type="line"/>
      <point x="496" y="839" type="line"/>
      <point x="496" y="901" type="line"/>
      <point x="556" y="904"/>
      <point x="596" y="916"/>
      <point x="596" y="949" type="curve" smooth="yes"/>
      <point x="596" y="975"/>
      <point x="575" y="989"/>
      <point x="532" y="989" type="curve" smooth="yes"/>
      <point x="479" y="989"/>
      <point x="461" y="967"/>
      <point x="449" y="943" type="curve"/>
    </contour>
    <component base="circumflex.uc" xOffset="79"/>
  </outline>
</glyph>
<glyph name="f.alt" format="2">
  <advance width="410"/>
  <outline>
    <contour>
      <point x="24" y="518" type="line"/>
      <point x="24" y="503" type="line"/>
      <point x="383" y="503" type="line"/>
      <point x="383" y="518" type="line"/>
    </contour>
    <contour>
      <point x="319" y="0" type="line"/>
      <point x="319" y="13" type="line"/>
      <point x="284" y="13" type="line" smooth="yes"/>
      <point x="230" y="13"/>
      <point x="188" y="18"/>
      <point x="188" y="29" type="curve" smooth="yes"/>
      <point x="188" y="613" type="line" smooth="yes"/>
      <point x="188" y="712"/>
      <point x="241" y="743"/>
      <point x="324" y="743" type="curve" smooth="yes"/>
      <point x="368" y="743"/>
      <point x="413" y="734"/>
      <point x="432" y="717" type="curve"/>
      <point x="435" y="726"/>
      <point x="419" y="739"/>
      <point x="413" y="739" type="curve"/>
      <point x="413" y="655" type="line"/>
      <point x="457" y="655" type="line"/>
      <point x="457" y="726" type="line"/>
      <point x="430" y="743"/>
      <point x="386" y="758"/>
      <point x="324" y="758" type="curve" smooth="yes"/>
      <point x="222" y="758"/>
      <point x="150" y="713"/>
      <point x="150" y="606" type="curve" smooth="yes"/>
      <point x="150" y="55" type="line" smooth="yes"/>
      <point x="150" y="21"/>
      <point x="118" y="13"/>
      <point x="62" y="13" type="curve" smooth="yes"/>
      <point x="31" y="13" type="line"/>
      <point x="31" y="0" type="line"/>
    </contour>
  </outline>
</glyph>
<glyph name="f_h" format="2">
  <advance width="1184"/>
  <outline>
    <contour>
      <point x="39" y="508" type="line"/>
      <point x="39" y="481" type="line"/>
      <point x="423" y="481" type="line"/>
      <point x="423" y="508" type="line"/>
    </contour>
    <contour>
      <point x="1016" y="0" type="line"/>
      <point x="1028" y="0"/>
      <point x="1342" y="0"/>
      <point x="1342" y="0" type="curve"/>
      <point x="1342" y="27" type="line"/>
      <point x="1342" y="27"/>
      <point x="1330" y="27"/>
      <point x="1309" y="27" type="curve" smooth="yes"/>
      <point x="1218" y="27"/>
      <point x="1149" y="34"/>
      <point x="1146" y="63" type="curve" smooth="yes"/>
      <point x="1143" y="357" type="line" smooth="yes"/>
      <point x="1147" y="468"/>
      <point x="1083" y="518"/>
      <point x="957" y="518" type="curve" smooth="yes"/>
      <point x="854" y="518"/>
      <point x="780" y="468"/>
      <point x="684" y="366" type="curve"/>
      <point x="699" y="335" type="line"/>
      <point x="781" y="428"/>
      <point x="882" y="485"/>
      <point x="1022" y="485" type="curve" smooth="yes"/>
      <point x="1152" y="485"/>
      <point x="1200" y="442"/>
      <point x="1200" y="346" type="curve" smooth="yes"/>
      <point x="1200" y="37" type="line" smooth="yes"/>
      <point x="1200" y="30"/>
      <point x="1060" y="27"/>
      <point x="1018" y="27" type="curve" smooth="yes"/>
      <point x="1014" y="27" type="line"/>
    </contour>
    <contour>
      <point x="482" y="0" type="line"/>
      <point x="786" y="0" type="line"/>
      <point x="721" y="27" type="line"/>
      <point x="717" y="27" type="line" smooth="yes"/>
      <point x="674" y="27"/>
      <point x="607" y="30"/>
      <point x="607" y="37" type="curve"/>
      <point x="616" y="37"/>
      <point x="625" y="735"/>
      <point x="625" y="735" type="curve"/>
      <point x="482" y="735" type="line"/>
      <point x="607" y="703" type="line"/>
      <point x="587" y="37" type="line"/>
      <point x="587" y="30"/>
      <point x="518" y="27"/>
      <point x="476" y="27" type="curve" smooth="yes"/>
      <point x="476" y="27"/>
      <point x="466" y="27"/>
      <point x="482" y="27" type="curve"/>
    </contour>
    <contour>
      <point x="-130" y="0" type="line"/>
      <point x="186" y="0" type="line"/>
      <point x="186" y="27" type="line"/>
      <point x="167" y="27" type="line" smooth="yes"/>
      <point x="96" y="27"/>
      <point x="42" y="30"/>
      <point x="42" y="37" type="curve"/>
      <point x="42" y="596" type="line" smooth="yes"/>
      <point x="42" y="695"/>
      <point x="130" y="722"/>
      <point x="301" y="722" type="curve" smooth="yes"/>
      <point x="417" y="722"/>
      <point x="519" y="707"/>
      <point x="605" y="673" type="curve"/>
      <point x="612" y="711" type="line"/>
      <point x="543" y="727"/>
      <point x="447" y="752"/>
      <point x="307" y="752" type="curve" smooth="yes"/>
      <point x="118" y="752"/>
      <point x="3" y="709"/>
      <point x="3" y="596" type="curve" smooth="yes"/>
      <point x="3" y="63" type="line" smooth="yes"/>
      <point x="3" y="34"/>
      <point x="-36" y="27"/>
      <point x="-113" y="27" type="curve" smooth="yes"/>
      <point x="-130" y="27" type="line"/>
    </contour>
  </outline>
</glyph>
<glyph name="f_i.alt" format="2">
  <advance width="817"/>
  <outline>
    <contour>
      <point x="29" y="518" type="line"/>
      <point x="29" y="486" type="line"/>
      <point x="528" y="486" type="line"/>
      <point x="528" y="518" type="line"/>
    </contour>
    <contour>
      <point x="381" y="724" type="curve" smooth="yes"/>
      <point x="422" y="724"/>
      <point x="448" y="717"/>
      <point x="464" y="713" type="curve"/>
      <point x="464" y="749" type="line"/>
      <point x="450" y="754"/>
      <point x="417" y="758"/>
      <point x="379" y="758" type="curve" smooth="yes"/>
      <point x="237" y="758"/>
      <point x="153" y="697"/>
      <point x="153" y="582" type="curve" smooth="yes"/>
      <point x="153" y="66" type="line" smooth="yes"/>
      <point x="153" y="37"/>
      <point x="109" y="30"/>
      <point x="36" y="30" type="curve" smooth="yes"/>
      <point x="29" y="30" type="line"/>
      <point x="29" y="0" type="line"/>
      <point x="400" y="0" type="line"/>
      <point x="400" y="30" type="line"/>
      <point x="393" y="30" type="line" smooth="yes"/>
      <point x="321" y="30"/>
      <point x="266" y="33"/>
      <point x="266" y="54" type="curve" smooth="yes"/>
      <point x="266" y="582" type="line" smooth="yes"/>
      <point x="266" y="683"/>
      <point x="296" y="724"/>
    </contour>
    <contour>
      <point x="637" y="642" type="curve" smooth="yes"/>
      <point x="681" y="642"/>
      <point x="714" y="665"/>
      <point x="714" y="703" type="curve" smooth="yes"/>
      <point x="714" y="740"/>
      <point x="681" y="763"/>
      <point x="637" y="763" type="curve" smooth="yes"/>
      <point x="593" y="763"/>
      <point x="558" y="740"/>
      <point x="558" y="703" type="curve" smooth="yes"/>
      <point x="558" y="665"/>
      <point x="593" y="642"/>
    </contour>
    <contour>
      <point x="795" y="0" type="line"/>
      <point x="795" y="30" type="line"/>
      <point x="793" y="30" type="line" smooth="yes"/>
      <point x="736" y="30"/>
      <point x="696" y="37"/>
      <point x="696" y="66" type="curve" smooth="yes"/>
      <point x="696" y="518" type="line"/>
      <point x="466" y="518" type="line"/>
      <point x="466" y="486" type="line"/>
      <point x="477" y="486" type="line" smooth="yes"/>
      <point x="538" y="486"/>
      <point x="582" y="472"/>
      <point x="582" y="443" type="curve" smooth="yes"/>
      <point x="582" y="66" type="line" smooth="yes"/>
      <point x="582" y="37"/>
      <point x="540" y="30"/>
      <point x="484" y="30" type="curve" smooth="yes"/>
      <point x="482" y="30" type="line"/>
      <point x="482" y="0" type="line"/>
    </contour>
  </outline>
</glyph>
<glyph name="florin.proportional" format="2">
  <advance width="631"/>
  <outline>
    <contour>
      <point x="148" y="508" type="line"/>
      <point x="141" y="478" type="line"/>
      <point x="596" y="478" type="line"/>
      <point x="602" y="508" type="line"/>
    </contour>
    <contour>
      <point x="261" y="56" type="curve" smooth="yes"/>
      <point x="355" y="567" type="line" smooth="yes"/>
      <point x="375" y="682"/>
      <point x="441" y="722"/>
      <point x="541" y="722" type="curve" smooth="yes"/>
      <point x="584" y="722"/>
      <point x="622" y="712"/>
      <point x="665" y="700" type="curve"/>
      <point x="672" y="733" type="line"/>
      <point x="639" y="745"/>
      <point x="585" y="752"/>
      <point x="540" y="752" type="curve" smooth="yes"/>
      <point x="416" y="752"/>
      <point x="339" y="695"/>
      <point x="317" y="573" type="curve" smooth="yes"/>
      <point x="227" y="57" type="line" smooth="yes"/>
      <point x="194" y="-142"/>
      <point x="104" y="-206"/>
      <point x="3" y="-206" type="curve" smooth="yes"/>
      <point x="-51" y="-206"/>
      <point x="-97" y="-192"/>
      <point x="-129" y="-183" type="curve"/>
      <point x="-136" y="-216" type="line"/>
      <point x="-109" y="-226"/>
      <point x="-65" y="-236"/>
      <point x="2" y="-236" type="curve" smooth="yes"/>
      <point x="131" y="-236"/>
      <point x="222" y="-155"/>
    </contour>
  </outline>
</glyph>
<glyph name="g.alt" format="2">
  <advance width="695"/>
  <outline>
    <contour>
      <point x="557" y="4" type="line" smooth="yes"/>
      <point x="557" y="-170"/>
      <point x="439" y="-218"/>
      <point x="308" y="-218" type="curve" smooth="yes"/>
      <point x="211" y="-218"/>
      <point x="125" y="-190"/>
      <point x="82" y="-146" type="curve"/>
      <point x="85" y="-183"/>
      <point x="100" y="-182"/>
      <point x="107" y="-182" type="curve"/>
      <point x="107" y="-78" type="line"/>
      <point x="63" y="-78" type="line"/>
      <point x="63" y="-159" type="line"/>
      <point x="104" y="-194"/>
      <point x="180" y="-233"/>
      <point x="308" y="-233" type="curve" smooth="yes"/>
      <point x="486" y="-233"/>
      <point x="595" y="-159"/>
      <point x="595" y="12" type="curve" smooth="yes"/>
      <point x="595" y="521" type="line"/>
      <point x="581" y="521" type="line"/>
      <point x="559" y="392" type="line"/>
      <point x="557" y="392" type="line"/>
    </contour>
    <contour>
      <point x="77" y="259" type="curve" smooth="yes"/>
      <point x="77" y="412"/>
      <point x="162" y="512"/>
      <point x="314" y="512" type="curve" smooth="yes"/>
      <point x="427" y="512"/>
      <point x="512" y="458"/>
      <point x="565" y="372" type="curve"/>
      <point x="565" y="396" type="line"/>
      <point x="507" y="478"/>
      <point x="428" y="528"/>
      <point x="314" y="528" type="curve" smooth="yes"/>
      <point x="150" y="528"/>
      <point x="35" y="421"/>
      <point x="35" y="259" type="curve" smooth="yes"/>
      <point x="35" y="97"/>
      <point x="150" y="-10"/>
      <point x="314" y="-10" type="curve" smooth="yes"/>
      <point x="428" y="-10"/>
      <point x="507" y="40"/>
      <point x="565" y="122" type="curve"/>
      <point x="565" y="146" type="line"/>
      <point x="512" y="60"/>
      <point x="427" y="6"/>
      <point x="314" y="6" type="curve" smooth="yes"/>
      <point x="162" y="6"/>
      <point x="77" y="106"/>
    </contour>
  </outline>
</glyph>
<glyph name="heartsuitwhite" format="2">
  <advance width="1133"/>
  <outline>
    <contour>
      <point x="561" y="495" type="curve"/>
      <point x="574" y="495" type="line"/>
      <point x="613" y="584"/>
      <point x="691" y="671"/>
      <point x="814" y="671" type="curve" smooth="yes"/>
      <point x="930" y="671"/>
      <point x="996" y="613"/>
      <point x="996" y="531" type="curve" smooth="yes"/>
      <point x="996" y="448"/>
      <point x="939" y="390"/>
      <point x="840" y="296" type="curve" smooth="yes"/>
      <point x="549" y="24" type="line"/>
      <point x="583" y="24" type="line"/>
      <point x="294" y="296" type="line" smooth="yes"/>
      <point x="195" y="388"/>
      <point x="137" y="448"/>
      <point x="137" y="531" type="curve" smooth="yes"/>
      <point x="137" y="613"/>
      <point x="203" y="671"/>
      <point x="319" y="671" type="curve" smooth="yes"/>
      <point x="440" y="671"/>
      <point x="520" y="584"/>
    </contour>
    <contour>
      <point x="581" y="-10" type="line"/>
      <point x="883" y="273" type="line" smooth="yes"/>
      <point x="991" y="375"/>
      <point x="1051" y="437"/>
      <point x="1051" y="535" type="curve" smooth="yes"/>
      <point x="1051" y="632"/>
      <point x="967" y="710"/>
      <point x="819" y="710" type="curve" smooth="yes"/>
      <point x="701" y="710"/>
      <point x="615" y="657"/>
      <point x="567" y="569" type="curve"/>
      <point x="517" y="657"/>
      <point x="432" y="710"/>
      <point x="314" y="710" type="curve" smooth="yes"/>
      <point x="166" y="710"/>
      <point x="82" y="632"/>
      <point x="82" y="535" type="curve" smooth="yes"/>
      <point x="82" y="437"/>
      <point x="142" y="375"/>
      <point x="250" y="273" type="curve" smooth="yes"/>
      <point x="552" y="-10" type="line"/>
    </contour>
  </outline>
</glyph>
<glyph name="hungarumlaut.uc" format="2">
  <advance width="622"/>
  <anchor x="275" y="694.0" name="_top"/>
  <outline>
    <contour>
      <point x="246" y="861" type="curve" smooth="yes"/>
      <point x="200" y="775" type="line"/>
      <point x="200" y="758" type="line"/>
      <point x="222" y="758" type="line"/>
      <point x="301" y="841" type="line" smooth="yes"/>
      <point x="311" y="856"/>
      <point x="323" y="872"/>
      <point x="323" y="886" type="curve" smooth="yes"/>
      <point x="323" y="902"/>
      <point x="311" y="911"/>
      <point x="295" y="911" type="curve" smooth="yes"/>
      <point x="270" y="911"/>
      <point x="263" y="896"/>
    </contour>
    <contour>
      <point x="372" y="861" type="curve" smooth="yes"/>
      <point x="327" y="775" type="line"/>
      <point x="327" y="758" type="line"/>
      <point x="348" y="758" type="line"/>
      <point x="428" y="841" type="line" smooth="yes"/>
      <point x="437" y="856"/>
      <point x="450" y="872"/>
      <point x="450" y="886" type="curve" smooth="yes"/>
      <point x="450" y="902"/>
      <point x="438" y="911"/>
      <point x="421" y="911" type="curve" smooth="yes"/>
      <point x="396" y="911"/>
      <point x="390" y="896"/>
    </contour>
  </outline>
</glyph>
<glyph name="lira.altprop" format="2">
  <advance width="738"/>
  <outline>
    <contour>
      <point x="37" y="428" type="line"/>
      <point x="37" y="398" type="line"/>
      <point x="517" y="398" type="line"/>
      <point x="517" y="428" type="line"/>
    </contour>
    <contour>
      <point x="37" y="273" type="line"/>
      <point x="37" y="243" type="line"/>
      <point x="517" y="243" type="line"/>
      <point x="517" y="273" type="line"/>
    </contour>
    <contour>
      <point x="56" y="0" type="line"/>
      <point x="666" y="0" type="line"/>
      <point x="666" y="168" type="line"/>
      <point x="634" y="168" type="line"/>
      <point x="625" y="73" type="line" smooth="yes"/>
      <point x="622" y="37"/>
      <point x="575" y="30"/>
      <point x="466" y="30" type="curve"/>
      <point x="82" y="30" type="line"/>
      <point x="108" y="21" type="line"/>
      <point x="220" y="67"/>
      <point x="276" y="136"/>
      <point x="276" y="221" type="curve" smooth="yes"/>
      <point x="276" y="331"/>
      <point x="163" y="411"/>
      <point x="163" y="528" type="curve" smooth="yes"/>
      <point x="163" y="632"/>
      <point x="260" y="688"/>
      <point x="392" y="688" type="curve" smooth="yes"/>
      <point x="491" y="688"/>
      <point x="558" y="657"/>
      <point x="592" y="632" type="curve"/>
      <point x="592" y="642"/>
      <point x="577" y="657"/>
      <point x="567" y="672" type="curve"/>
      <point x="567" y="576" type="line"/>
      <point x="618" y="576" type="line"/>
      <point x="618" y="661" type="line"/>
      <point x="584" y="683"/>
      <point x="513" y="718"/>
      <point x="394" y="718" type="curve" smooth="yes"/>
      <point x="237" y="718"/>
      <point x="121" y="643"/>
      <point x="121" y="528" type="curve" smooth="yes"/>
      <point x="121" y="402"/>
      <point x="234" y="312"/>
      <point x="234" y="221" type="curve" smooth="yes"/>
      <point x="234" y="123"/>
      <point x="169" y="77"/>
      <point x="56" y="35" type="curve"/>
    </contour>
  </outline>
</glyph>
<glyph name="minus.sub" format="2">
  <advance width="495"/>
  <outline>
    <contour>
      <point x="438" y="95" type="line"/>
      <point x="57" y="95" type="line"/>
      <point x="57" y="65" type="line"/>
      <point x="438" y="65" type="line"/>
    </contour>
  </outline>
</glyph>
<glyph name="tilde.uc" format="2">
  <advance width="622"/>
  <anchor x="312" y="694.0" name="_top"/>
  <outline>
    <contour>
      <point x="389" y="772" type="curve" smooth="yes"/>
      <point x="446" y="772"/>
      <point x="472" y="806"/>
      <point x="496" y="864" type="curve"/>
      <point x="460" y="873" type="line"/>
      <point x="442" y="831"/>
      <point x="425" y="805"/>
      <point x="390" y="805" type="curve" smooth="yes"/>
      <point x="332" y="805"/>
      <point x="303" y="876"/>
      <point x="212" y="876" type="curve" smooth="yes"/>
      <point x="158" y="876"/>
      <point x="123" y="844"/>
      <point x="110" y="782" type="curve"/>
      <point x="146" y="772" type="line"/>
      <point x="158" y="818"/>
      <point x="171" y="843"/>
      <point x="213" y="843" type="curve" smooth="yes"/>
      <point x="271" y="843"/>
      <point x="295" y="772"/>
    </contour>
  </outline>
</glyph>
<glyph name="whitediamond" format="2">
  <advance width="778"/>
  <outline>
    <contour>
      <point x="389" y="52" type="line"/>
      <point x="721" y="313" type="line"/>
      <point x="389" y="574" type="line"/>
      <point x="57" y="313" type="line"/>
    </contour>
    <contour>
      <point x="389" y="106" type="line"/>
      <point x="125" y="313" type="line"/>
      <point x="389" y="520" type="line"/>
      <point x="652" y="313" type="line"/>
    </contour>
  </outline>
</glyph>
<glyph name="whitedownpointingtriangle" format="2">
  <advance width="807"/>
  <outline>
    <contour>
      <point x="63" y="464" type="line"/>
      <point x="403" y="91" type="line"/>
      <point x="744" y="464" type="line"/>
    </contour>
    <contour>
      <point x="399" y="155" type="line"/>
      <point x="408" y="155" type="line"/>
      <point x="157" y="431" type="line"/>
      <point x="152" y="426" type="line"/>
      <point x="654" y="426" type="line"/>
      <point x="648" y="431" type="line"/>
    </contour>
  </outline>
</glyph>
